<svg width="20" height="20" viewBox="0 0 20 20" fill="none" xmlns="http://www.w3.org/2000/svg">
<path d="M11.6667 14.9997V12.4997H8.33341V9.16634H11.6667V6.66634L15.8334 10.833M16.6667 4.99967H10.0001L8.33341 3.33301H3.33341C2.40841 3.33301 1.66675 4.07467 1.66675 4.99967V14.9997C1.66675 15.4417 1.84234 15.8656 2.1549 16.1782C2.46746 16.4907 2.89139 16.6663 3.33341 16.6663H16.6667C17.1088 16.6663 17.5327 16.4907 17.8453 16.1782C18.1578 15.8656 18.3334 15.4417 18.3334 14.9997V6.66634C18.3334 6.22431 18.1578 5.80039 17.8453 5.48783C17.5327 5.17527 17.1088 4.99967 16.6667 4.99967Z" fill="#24445A"/>
</svg>
