<svg width="47" height="47" viewBox="0 0 47 47" fill="none" xmlns="http://www.w3.org/2000/svg">
<path d="M4.40625 23.5C4.40625 34.0447 12.9553 42.5938 23.5 42.5938C34.0447 42.5938 42.5938 34.0447 42.5938 23.5C42.5938 12.9553 34.0447 4.40625 23.5 4.40625C12.9553 4.40625 4.40625 12.9553 4.40625 23.5ZM23.9269 15.1134C24.0638 15.2493 24.1727 15.4108 24.2472 15.5887C24.3218 15.7666 24.3605 15.9575 24.3613 16.1504C24.3621 16.3433 24.3248 16.5345 24.2517 16.713C24.1786 16.8915 24.071 17.0539 23.9351 17.1908L19.1323 22.0312H31.3945C31.7841 22.0312 32.1577 22.186 32.4331 22.4614C32.7085 22.7369 32.8633 23.1105 32.8633 23.5C32.8633 23.8895 32.7085 24.2631 32.4331 24.5386C32.1577 24.814 31.7841 24.9688 31.3945 24.9688H19.1323L23.9351 29.8092C24.071 29.9463 24.1785 30.1087 24.2516 30.2874C24.3246 30.466 24.3618 30.6573 24.361 30.8502C24.3601 31.0432 24.3212 31.2342 24.2466 31.4121C24.172 31.5901 24.063 31.7516 23.9259 31.8875C23.7889 32.0233 23.6264 32.1309 23.4478 32.2039C23.2691 32.277 23.0779 32.3142 22.8849 32.3133C22.6919 32.3125 22.501 32.2736 22.323 32.199C22.145 32.1243 21.9835 32.0154 21.8477 31.8783L14.5599 24.5345C14.2869 24.2594 14.1337 23.8876 14.1337 23.5C14.1337 23.1124 14.2869 22.7406 14.5599 22.4654L21.8477 15.1217C21.9835 14.9845 22.1451 14.8754 22.3232 14.8007C22.5013 14.726 22.6924 14.6871 22.8855 14.6863C23.0787 14.6856 23.2701 14.7229 23.4487 14.7962C23.6274 14.8695 23.7899 14.9773 23.9269 15.1134Z" fill="#24445A"/>
</svg>
